<svg width="388" height="76" viewBox="0 0 388 76" fill="none" xmlns="http://www.w3.org/2000/svg">
  <path d="M6.17527 13.0568C26.0218 22.1568 99.7742 8.82172 108 27.2247L108 28H101.754H20.6687C20.6687 28 -13.6712 3.95674 6.17527 13.0568Z" fill="url(#paint0_linear_152_1993)"/>
  <path d="M32 18.3913C150.839 -4.44373 215.312 -6.54118 279.399 15.0602C279.399 15.0602 370.091 40.9591 270.714 18.3907C171.336 -4.17766 131.502 32.2097 32 18.3913Z" fill="url(#paint1_linear_152_1993)"/>
  <path d="M196.729 25C189.203 26.4745 320.535 26.9997 351.502 31.4999C382.469 36.0002 357.424 26.8103 320.438 25.6067C283.451 24.4031 204.255 23.5254 196.729 25Z" fill="url(#paint2_linear_152_1993)"/>
  <path d="M24.4 44.6H33.08L28.36 66.64H36.48L35.8 70H19L24.4 44.6ZM75.1366 70H66.2566L69.9366 52.72L60.4566 70H55.0166L53.2166 52.12L49.3766 70H45.7766L51.1766 44.6H61.3766L62.6166 58.92L70.2966 44.6H80.5766L75.1366 70ZM105.703 70H97.0628L98.3828 63.6H87.9428L88.9428 58.92L100.863 44.6H111.183L107.783 60.24H111.423L110.703 63.6H107.063L105.703 70ZM99.1028 60.24L101.503 49.12L92.6228 60.24H99.1028Z" fill="url(#paint3_linear_152_1993)"/>
  <path d="M135.576 58.288C136.024 57.8613 136.525 57.4667 137.08 57.104C137.571 56.8053 138.157 56.528 138.84 56.272C139.523 56.016 140.291 55.888 141.144 55.888C142.168 55.888 142.925 56.1227 143.416 56.592C143.928 57.0613 144.216 57.6373 144.28 58.32H144.472C144.963 57.872 145.496 57.4667 146.072 57.104C146.563 56.8053 147.139 56.528 147.8 56.272C148.461 56.016 149.165 55.888 149.912 55.888C151.021 55.888 151.917 56.1973 152.6 56.816C153.304 57.4133 153.656 58.192 153.656 59.152C153.656 59.6427 153.571 60.2933 153.4 61.104C153.229 61.9147 153.037 62.8 152.824 63.76L151.48 70H145.176L146.904 61.648C146.968 61.328 147.032 61.0187 147.096 60.72C147.16 60.4213 147.192 60.176 147.192 59.984C147.192 59.6853 147.107 59.44 146.936 59.248C146.765 59.0347 146.52 58.928 146.2 58.928C145.795 58.928 145.411 59.0773 145.048 59.376C144.707 59.6533 144.44 59.888 144.248 60.08L142.168 70H136.184L137.944 61.648C137.987 61.3707 138.04 61.0933 138.104 60.816C138.168 60.5173 138.2 60.2507 138.2 60.016C138.2 59.696 138.115 59.44 137.944 59.248C137.795 59.0347 137.56 58.928 137.24 58.928C136.856 58.928 136.483 59.0667 136.12 59.344C135.779 59.6213 135.512 59.856 135.32 60.048L133.208 70H126.68L129.592 56.24H134.808L135.384 58.288H135.576ZM172.963 55.888C175.501 55.888 177.347 56.336 178.499 57.232C179.715 58.1707 180.323 59.728 180.323 61.904C180.323 63.248 180.099 64.464 179.651 65.552C179.203 66.6187 178.573 67.504 177.763 68.208C176.141 69.5733 173.795 70.256 170.722 70.256C168.098 70.256 166.221 69.7547 165.09 68.752C163.874 67.7067 163.266 66.1387 163.266 64.048C163.266 62.6613 163.544 61.4027 164.098 60.272C164.674 59.1413 165.496 58.2027 166.562 57.456C168.12 56.4107 170.253 55.888 172.963 55.888ZM170.786 68.08C171.32 68.08 171.779 67.7813 172.163 67.184C172.568 66.5867 172.888 65.8613 173.123 65.008C173.357 64.1333 173.528 63.2373 173.635 62.32C173.763 61.3813 173.826 60.5707 173.826 59.888C173.826 59.2907 173.763 58.8427 173.635 58.544C173.528 58.224 173.283 58.064 172.899 58.064C172.323 58.064 171.821 58.3733 171.394 58.992C170.989 59.6107 170.659 60.3467 170.403 61.2C170.146 62.0533 169.954 62.928 169.826 63.824C169.72 64.72 169.667 65.4453 169.667 66C169.667 67.3867 170.04 68.08 170.786 68.08ZM190.487 56.24C191.276 56.0693 191.97 55.8773 192.567 55.664C193.164 55.4507 193.708 55.184 194.199 54.864C194.711 54.544 195.191 54.1493 195.639 53.68C196.108 53.2107 196.61 52.6347 197.143 51.952H200.439L199.511 56.24H202.007L201.591 58.384H199.063L197.751 64.624C197.644 65.1147 197.559 65.552 197.495 65.936C197.431 66.32 197.399 66.6187 197.399 66.832C197.399 67.2587 197.548 67.5253 197.847 67.632C198.167 67.7387 198.754 67.792 199.607 67.792L199.127 70C198.978 70.0427 198.743 70.0747 198.423 70.096C198.124 70.1173 197.783 70.1387 197.399 70.16C197.036 70.2027 196.652 70.224 196.247 70.224C195.863 70.2453 195.522 70.256 195.223 70.256C194.69 70.256 194.167 70.2133 193.655 70.128C193.143 70.064 192.684 69.9253 192.279 69.712C191.874 69.4773 191.543 69.1467 191.287 68.72C191.052 68.2933 190.935 67.7173 190.935 66.992C190.935 66.736 190.946 66.416 190.967 66.032C191.01 65.648 191.084 65.2213 191.191 64.752L192.535 58.384H190.039L190.487 56.24ZM219.665 55.888C222.204 55.888 224.049 56.336 225.201 57.232C226.417 58.1707 227.025 59.728 227.025 61.904C227.025 63.248 226.801 64.464 226.353 65.552C225.905 66.6187 225.276 67.504 224.465 68.208C222.844 69.5733 220.497 70.256 217.425 70.256C214.801 70.256 212.924 69.7547 211.793 68.752C210.577 67.7067 209.969 66.1387 209.969 64.048C209.969 62.6613 210.246 61.4027 210.801 60.272C211.377 59.1413 212.198 58.2027 213.265 57.456C214.822 56.4107 216.956 55.888 219.665 55.888ZM217.489 68.08C218.022 68.08 218.481 67.7813 218.865 67.184C219.27 66.5867 219.59 65.8613 219.825 65.008C220.06 64.1333 220.23 63.2373 220.337 62.32C220.465 61.3813 220.529 60.5707 220.529 59.888C220.529 59.2907 220.465 58.8427 220.337 58.544C220.23 58.224 219.985 58.064 219.601 58.064C219.025 58.064 218.524 58.3733 218.097 58.992C217.692 59.6107 217.361 60.3467 217.105 61.2C216.849 62.0533 216.657 62.928 216.529 63.824C216.422 64.72 216.369 65.4453 216.369 66C216.369 67.3867 216.742 68.08 217.489 68.08ZM238.903 56.24H244.119L244.599 58.64H244.823C245.314 57.872 245.943 57.2213 246.711 56.688C247.479 56.1547 248.493 55.888 249.751 55.888C249.837 55.888 249.965 55.8987 250.135 55.92C250.327 55.92 250.53 55.952 250.743 56.016C250.978 56.0587 251.213 56.1333 251.447 56.24C251.703 56.3253 251.949 56.4533 252.183 56.624L250.775 63.216H247.287C247.245 61.8933 247.127 60.976 246.935 60.464C246.743 59.9307 246.434 59.664 246.007 59.664C245.794 59.664 245.559 59.7173 245.303 59.824C245.069 59.9093 244.823 60.112 244.567 60.432L242.519 70H235.991L238.903 56.24ZM269.924 60.272C269.945 60.1653 269.967 60.0587 269.988 59.952C270.009 59.8453 270.02 59.728 270.02 59.6C270.02 59.216 269.945 58.864 269.796 58.544C269.668 58.2027 269.401 58.032 268.996 58.032C268.633 58.032 268.271 58.192 267.908 58.512C267.545 58.8107 267.364 59.216 267.364 59.728C267.364 60.0693 267.449 60.3467 267.62 60.56C267.812 60.752 268.057 60.912 268.356 61.04C268.655 61.168 268.985 61.2747 269.348 61.36C269.732 61.4453 270.105 61.5307 270.468 61.616C270.98 61.744 271.46 61.904 271.908 62.096C272.377 62.2667 272.793 62.5013 273.156 62.8C273.519 63.0987 273.807 63.472 274.02 63.92C274.233 64.3467 274.34 64.88 274.34 65.52C274.34 66.416 274.127 67.1733 273.7 67.792C273.295 68.3893 272.719 68.88 271.972 69.264C271.247 69.6267 270.383 69.8827 269.38 70.032C268.399 70.1813 267.343 70.256 266.212 70.256C264.484 70.256 263.055 70.128 261.924 69.872C260.793 69.616 260.004 69.3707 259.556 69.136L260.228 65.936H264.548C264.527 66.0427 264.516 66.1493 264.516 66.256C264.516 66.3413 264.516 66.4373 264.516 66.544C264.516 67.0347 264.623 67.4293 264.836 67.728C265.071 68.0053 265.465 68.144 266.02 68.144C266.639 68.144 267.076 67.9733 267.332 67.632C267.609 67.2693 267.748 66.9387 267.748 66.64C267.748 66.3413 267.631 66.0853 267.396 65.872C267.183 65.6373 266.905 65.4453 266.564 65.296C266.223 65.1253 265.839 64.9867 265.412 64.88C265.007 64.752 264.612 64.6347 264.228 64.528C263.951 64.464 263.631 64.3573 263.268 64.208C262.927 64.0587 262.596 63.8453 262.276 63.568C261.956 63.2907 261.689 62.9387 261.476 62.512C261.263 62.064 261.156 61.5093 261.156 60.848C261.156 59.9093 261.38 59.1307 261.828 58.512C262.297 57.872 262.895 57.36 263.62 56.976C264.367 56.592 265.199 56.3147 266.116 56.144C267.055 55.9733 267.993 55.888 268.932 55.888C270.105 55.888 271.215 55.9947 272.26 56.208C273.305 56.4213 274.159 56.6987 274.82 57.04L274.084 60.272H269.924ZM289.07 75.376H282.542L286.574 56.24H291.79L292.366 58.288H292.558C293.326 57.4773 294.179 56.9013 295.118 56.56C296.078 56.1973 297.016 56.016 297.934 56.016C298.68 56.016 299.299 56.1333 299.79 56.368C300.302 56.5813 300.707 56.88 301.006 57.264C301.304 57.648 301.518 58.1067 301.646 58.64C301.774 59.1733 301.838 59.7387 301.838 60.336C301.838 60.6347 301.816 61.0827 301.774 61.68C301.731 62.2773 301.635 62.9493 301.486 63.696C301.336 64.4213 301.123 65.1787 300.846 65.968C300.568 66.736 300.195 67.44 299.726 68.08C299.278 68.72 298.702 69.2427 297.998 69.648C297.315 70.0533 296.494 70.256 295.534 70.256C295 70.256 294.478 70.192 293.966 70.064C293.475 69.936 293.027 69.7653 292.622 69.552C292.216 69.3387 291.854 69.0933 291.534 68.816C291.235 68.5173 291.011 68.2187 290.862 67.92H290.67L289.07 75.376ZM292.462 67.152C292.974 67.152 293.4 66.8853 293.742 66.352C294.083 65.7973 294.36 65.1573 294.574 64.432C294.787 63.6853 294.936 62.9493 295.022 62.224C295.128 61.4773 295.182 60.9227 295.182 60.56C295.182 60.1333 295.107 59.7813 294.958 59.504C294.83 59.2267 294.584 59.088 294.222 59.088C293.816 59.088 293.432 59.2373 293.07 59.536C292.707 59.8133 292.44 60.0587 292.27 60.272L291.022 66.128C291.192 66.3627 291.395 66.5973 291.63 66.832C291.864 67.0453 292.142 67.152 292.462 67.152ZM321.101 55.888C323.64 55.888 325.485 56.336 326.637 57.232C327.853 58.1707 328.461 59.728 328.461 61.904C328.461 63.248 328.237 64.464 327.789 65.552C327.341 66.6187 326.712 67.504 325.901 68.208C324.28 69.5733 321.933 70.256 318.861 70.256C316.237 70.256 314.36 69.7547 313.229 68.752C312.013 67.7067 311.405 66.1387 311.405 64.048C311.405 62.6613 311.683 61.4027 312.237 60.272C312.813 59.1413 313.635 58.2027 314.701 57.456C316.259 56.4107 318.392 55.888 321.101 55.888ZM318.925 68.08C319.459 68.08 319.917 67.7813 320.301 67.184C320.707 66.5867 321.027 65.8613 321.261 65.008C321.496 64.1333 321.667 63.2373 321.773 62.32C321.901 61.3813 321.965 60.5707 321.965 59.888C321.965 59.2907 321.901 58.8427 321.773 58.544C321.667 58.224 321.421 58.064 321.037 58.064C320.461 58.064 319.96 58.3733 319.533 58.992C319.128 59.6107 318.797 60.3467 318.541 61.2C318.285 62.0533 318.093 62.928 317.965 63.824C317.859 64.72 317.805 65.4453 317.805 66C317.805 67.3867 318.179 68.08 318.925 68.08ZM340.339 56.24H345.555L346.035 58.64H346.259C346.75 57.872 347.379 57.2213 348.147 56.688C348.915 56.1547 349.929 55.888 351.187 55.888C351.273 55.888 351.401 55.8987 351.571 55.92C351.763 55.92 351.966 55.952 352.179 56.016C352.414 56.0587 352.649 56.1333 352.883 56.24C353.139 56.3253 353.385 56.4533 353.619 56.624L352.211 63.216H348.723C348.681 61.8933 348.563 60.976 348.371 60.464C348.179 59.9307 347.87 59.664 347.443 59.664C347.23 59.664 346.995 59.7173 346.739 59.824C346.505 59.9093 346.259 60.112 346.003 60.432L343.955 70H337.427L340.339 56.24ZM363.008 56.24C363.798 56.0693 364.491 55.8773 365.088 55.664C365.686 55.4507 366.23 55.184 366.72 54.864C367.232 54.544 367.712 54.1493 368.16 53.68C368.63 53.2107 369.131 52.6347 369.664 51.952H372.96L372.032 56.24H374.528L374.112 58.384H371.584L370.272 64.624C370.166 65.1147 370.08 65.552 370.016 65.936C369.952 66.32 369.92 66.6187 369.92 66.832C369.92 67.2587 370.07 67.5253 370.368 67.632C370.688 67.7387 371.275 67.792 372.128 67.792L371.648 70C371.499 70.0427 371.264 70.0747 370.944 70.096C370.646 70.1173 370.304 70.1387 369.92 70.16C369.558 70.2027 369.174 70.224 368.768 70.224C368.384 70.2453 368.043 70.256 367.744 70.256C367.211 70.256 366.688 70.2133 366.176 70.128C365.664 70.064 365.206 69.9253 364.8 69.712C364.395 69.4773 364.064 69.1467 363.808 68.72C363.574 68.2933 363.456 67.7173 363.456 66.992C363.456 66.736 363.467 66.416 363.488 66.032C363.531 65.648 363.606 65.2213 363.712 64.752L365.056 58.384H362.56L363.008 56.24Z" fill="url(#paint4_linear_152_1993)"/>
  <defs>
    <linearGradient id="paint0_linear_152_1993" x1="0" y1="19.5" x2="108" y2="19.5" gradientUnits="userSpaceOnUse">
      <stop offset="0.235" stop-color="#3F3F3F"/>
      <stop offset="1" stop-color="#A5A5A5"/>
    </linearGradient>
    <linearGradient id="paint1_linear_152_1993" x1="32" y1="13.8124" x2="317.251" y2="13.8124" gradientUnits="userSpaceOnUse">
      <stop stop-color="#3F3F3F"/>
      <stop offset="0.315" stop-color="#A2A2A2"/>
      <stop offset="0.59" stop-color="#B9A430"/>
      <stop offset="1" stop-color="#FFD700"/>
    </linearGradient>
    <linearGradient id="paint2_linear_152_1993" x1="199.73" y1="24.4941" x2="357.731" y2="24.4941" gradientUnits="userSpaceOnUse">
      <stop offset="0.315" stop-color="#A3A3A3"/>
      <stop offset="0.74" stop-color="#FFD700"/>
    </linearGradient>
    <linearGradient id="paint3_linear_152_1993" x1="19" y1="56" x2="207" y2="56" gradientUnits="userSpaceOnUse">
      <stop offset="0.125" stop-color="#5B5B5B"/>
      <stop offset="0.575" stop-color="#C1C1C1"/>
    </linearGradient>
    <linearGradient id="paint4_linear_152_1993" x1="127" y1="59" x2="388" y2="59" gradientUnits="userSpaceOnUse">
      <stop offset="0.28" stop-color="#B1B1B1"/>
      <stop offset="0.6" stop-color="#D9BD26"/>
      <stop offset="0.995" stop-color="#FFD700"/>
    </linearGradient>
  </defs>
</svg>
